<svg width="128" height="21" viewBox="0 0 128 21" fill="none" xmlns="http://www.w3.org/2000/svg">
<path d="M13.0546 12.8792C13.4244 15.0997 14.6429 17.7221 16.9927 17.7221C17.95 17.7221 18.8421 17.3414 19.4295 16.8127L20.8655 19.4139C19.5818 20.429 18.2764 21 16.4052 21C11.1834 21 9.55159 15.4592 9.33401 13.0906H4.06867V20.6828H0V0H11.1181C15.5349 0 18.0371 3.10876 18.0371 6.64048C18.0153 9.66465 16.1441 12.139 13.0546 12.8792ZM10.4654 10.0665C12.5541 10.0665 13.8814 8.64955 13.8814 6.61933C13.8814 4.61027 12.5106 3.12991 10.4654 3.12991H4.06867V10.0665H10.4654Z" fill="#223734"/>
<path d="M25.4128 20.6616L33.9853 0H38.2063L46.8223 20.6616H42.6666L40.9913 16.6224H31.2221L29.6121 20.6616H25.4128ZM36.0958 3.84894L32.3535 13.5559H39.8164L36.0958 3.84894Z" fill="#223734"/>
<path d="M52.8928 20.6616V0H67.3182V3.04532H56.9397V9.03021H65.9692V12.0544H56.9397V20.6828H52.8928V20.6616Z" fill="#223734"/>
<path d="M90.7293 6.72508V20.6616H86.6606V0H89.7285L100.694 13.852V0H104.763V20.6616H101.717L90.7293 6.72508Z" fill="#223734"/>
<path d="M113.575 20.6616V0H128V3.04532H117.622V9.03021H126.651V12.0544H117.622V17.6586H128V20.6616H113.575Z" fill="#223734"/>
<path d="M77.9359 0H73.8672V3.7855H77.9359V0Z" fill="#223734"/>
<path d="M77.9359 5.49849H73.8672V20.6828H77.9359V5.49849Z" fill="#223734"/>
</svg>
